<svg xmlns="http://www.w3.org/2000/svg" xmlns:xlink="http://www.w3.org/1999/xlink" width="500" zoomAndPan="magnify" viewBox="0 0 375 149.999998" height="200" preserveAspectRatio="xMidYMid meet" version="1.0"><defs><g/><clipPath id="00500a6398"><rect x="0" width="375" y="0" height="150"/></clipPath></defs><g transform="matrix(1, 0, 0, 1, 0, -0.000000000000007527)"><g clip-path="url(#00500a6398)"><g fill="#ffffff" fill-opacity="1"><g transform="translate(0.0118515, 121.071587)"><g><path d="M 57.984375 -28.3125 L 57.984375 -13.25 L 5.09375 -34.46875 L 5.09375 -48.546875 L 57.984375 -69.765625 L 57.984375 -54.75 L 24.6875 -42.15625 L 24.6875 -40.921875 Z M 57.984375 -28.3125 "/></g></g></g><g fill="#ffffff" fill-opacity="1"><g transform="translate(64.672665, 121.071587)"><g><path d="M 15.765625 12.25 L 0.359375 12.25 L 32.296875 -90.640625 L 47.78125 -90.640625 Z M 15.765625 12.25 "/></g></g></g><g fill="#ff3131" fill-opacity="1"><g transform="translate(113.329378, 121.071587)"><g><path d="M 46.84375 1.234375 C 38.945312 1.234375 31.988281 -0.40625 25.96875 -3.6875 C 19.945312 -6.976562 15.234375 -11.914062 11.828125 -18.5 C 8.429688 -25.082031 6.734375 -33.203125 6.734375 -42.859375 C 6.734375 -52.503906 8.429688 -60.617188 11.828125 -67.203125 C 15.234375 -73.796875 19.945312 -78.734375 25.96875 -82.015625 C 31.988281 -85.296875 38.945312 -86.9375 46.84375 -86.9375 C 55.082031 -86.9375 62.082031 -85.320312 67.84375 -82.09375 C 73.613281 -78.875 77.734375 -73.960938 80.203125 -67.359375 L 67.828125 -59.796875 L 66.359375 -59.859375 C 64.523438 -64.304688 62.035156 -67.5 58.890625 -69.4375 C 55.742188 -71.375 51.726562 -72.34375 46.84375 -72.34375 C 39.726562 -72.34375 34.175781 -69.988281 30.1875 -65.28125 C 26.207031 -60.570312 24.21875 -53.097656 24.21875 -42.859375 C 24.21875 -32.648438 26.207031 -25.191406 30.1875 -20.484375 C 34.175781 -15.773438 39.726562 -13.421875 46.84375 -13.421875 C 57.976562 -13.421875 64.796875 -18.832031 67.296875 -29.65625 L 68.765625 -29.65625 L 81.25 -23.15625 C 78.90625 -15.03125 74.898438 -8.929688 69.234375 -4.859375 C 63.566406 -0.796875 56.101562 1.234375 46.84375 1.234375 Z M 46.84375 1.234375 "/></g></g></g><g fill="#00bf63" fill-opacity="1"><g transform="translate(197.405205, 121.071587)"><g><path d="M 28.078125 0 L 11.140625 0 L 11.140625 -85.703125 L 28.078125 -85.703125 Z M 28.078125 0 "/></g></g></g><g fill="#5170ff" fill-opacity="1"><g transform="translate(236.682449, 121.071587)"><g><path d="M 37.984375 1.234375 C 32.046875 1.234375 26.757812 0.5 22.125 -0.96875 C 17.5 -2.4375 13.640625 -4.359375 10.546875 -6.734375 C 7.460938 -9.117188 5.097656 -11.738281 3.453125 -14.59375 L 12.78125 -25.96875 L 14.25 -25.96875 C 16.820312 -22.132812 20.09375 -19.082031 24.0625 -16.8125 C 28.03125 -14.550781 32.671875 -13.421875 37.984375 -13.421875 C 42.515625 -13.421875 45.929688 -14.378906 48.234375 -16.296875 C 50.546875 -18.210938 51.703125 -20.851562 51.703125 -24.21875 C 51.703125 -26.25 51.332031 -27.945312 50.59375 -29.3125 C 49.851562 -30.675781 48.617188 -31.847656 46.890625 -32.828125 C 45.171875 -33.804688 42.847656 -34.644531 39.921875 -35.34375 L 28.90625 -37.875 C 21.207031 -39.632812 15.46875 -42.554688 11.6875 -46.640625 C 7.914062 -50.722656 6.03125 -56.023438 6.03125 -62.546875 C 6.03125 -67.398438 7.242188 -71.660156 9.671875 -75.328125 C 12.097656 -79.003906 15.625 -81.859375 20.25 -83.890625 C 24.882812 -85.921875 30.425781 -86.9375 36.875 -86.9375 C 43.476562 -86.9375 49.132812 -86.066406 53.84375 -84.328125 C 58.550781 -82.585938 62.53125 -79.921875 65.78125 -76.328125 L 57.390625 -64.84375 L 55.921875 -64.84375 C 53.503906 -67.382812 50.726562 -69.285156 47.59375 -70.546875 C 44.46875 -71.816406 40.894531 -72.453125 36.875 -72.453125 C 32.21875 -72.453125 28.675781 -71.628906 26.25 -69.984375 C 23.832031 -68.347656 22.625 -66.085938 22.625 -63.203125 C 22.625 -60.503906 23.472656 -58.351562 25.171875 -56.75 C 26.878906 -55.144531 29.820312 -53.894531 34 -53 L 45.265625 -50.65625 C 53.585938 -48.894531 59.625 -45.910156 63.375 -41.703125 C 67.125 -37.503906 69 -32.023438 69 -25.265625 C 69 -19.910156 67.84375 -15.25 65.53125 -11.28125 C 63.226562 -7.3125 59.75 -4.234375 55.09375 -2.046875 C 50.445312 0.140625 44.742188 1.234375 37.984375 1.234375 Z M 37.984375 1.234375 "/></g></g></g><g fill="#ffffff" fill-opacity="1"><g transform="translate(310.319888, 121.071587)"><g><path d="M 59.4375 -34.46875 L 6.5625 -13.25 L 6.5625 -28.3125 L 39.921875 -40.921875 L 39.921875 -42.15625 L 6.5625 -54.75 L 6.5625 -69.765625 L 59.4375 -48.546875 Z M 59.4375 -34.46875 "/></g></g></g></g></g></svg>